# xmcd
#
# Track frame offsets:
# 150
# 10894
# 22421
# 31262
# 40375
# 51427
# 61414
# 70714
# 81753
# 94264
#
# Disc length: 1413 seconds
#
#
# Revision: 0
# Processed by: cddbd v1.4PL0 Copyright (c) Steve Scherf et al.
# Submitted via: FreeRIP 2.00 
#
DISCID=8505830a
DTITLE=George Jones - We Found Heaven Right Here On Earth At 4033
DYEAR=1966
DGENRE=Country
TTITLE0=Four-0-Thirty Three
TTITLE1=From Here To The Door
TTITLE2=Back Into My Baby's Arms Again
TTITLE3=Ain't Nothin' Shakin' (But The Leaves)
TTITLE4=In Person
TTITLE5=Developing My Pictures
TTITLE6=Please Don't Let That Woman Get Me
TTITLE7=Walk Through This World With Me
TTITLE8=Your Steppin' Stone
TTITLE9=Don't Keep Me Lonely Too Long
EXTD=Musicor MS 3106
EXTT0=
EXTT1=
EXTT2=
EXTT3=
EXTT4=
EXTT5=
EXTT6=
EXTT7=
EXTT8=
EXTT9=
PLAYORDER=
